Coordinates
version=1
nRows=20
nColumns=26
inDegrees=yes

Units are S.I. units (second, meters, Newtons, ...)
If the header above contains a line with 'inDegrees', this indicates whether rotational values are in degrees (yes) or radians (no).

endheader
time	pelvis_tilt	pelvis_list	pelvis_rotation	pelvis_tx	pelvis_ty	pelvis_tz	hip_flexion_r	hip_adduction_r	hip_rotation_r	knee_angle_r	knee_angle_r_beta	ankle_angle_r	subtalar_angle_r	mtp_angle_r	hip_flexion_l	hip_adduction_l	hip_rotation_l	knee_angle_l	knee_angle_l_beta	ankle_angle_l	subtalar_angle_l	mtp_angle_l	lumbar_extension	lumbar_bending	lumbar_rotation
      0.47600000	     -7.54768358	     14.17305721	     -6.77380087	     -1.54885163	      0.98377897	      0.18946885	    -20.96232343	    -15.30445216	    -19.80697244	     15.44759448	      0.26961139	    -13.97404792	      0.00000000	     38.44666730	     60.54945297	      7.16263364	     -4.72274242	    113.30071041	      1.97747044	     25.13690575	      0.00000000	     51.10895526	     -1.46237662	    -14.44238999	     18.80866374
      0.48000000	     -8.20689406	     14.53099327	     -5.93878505	     -1.52024544	      0.98469374	      0.18977943	    -21.81688707	    -15.41880221	    -21.30614515	     15.06025009	      0.26285095	    -16.16874304	      0.00000000	     44.88182629	     62.03605417	      7.43317837	     -5.33302615	    110.40387537	      1.92691113	     24.69251889	      0.00000000	     48.77975772	     -0.49462893	    -15.00739542	     18.81072827
      0.48400000	     -9.22441522	     15.71470359	     -5.64713901	     -1.49314348	      0.98511581	      0.18916751	    -21.68090970	    -16.79981399	    -22.36680248	     15.55317847	      0.27145417	    -18.37415973	      0.00000000	     45.64938287	     64.04193492	      7.85620835	     -7.01933670	    107.20410763	      1.87106465	     24.77768372	      0.00000000	     48.79863661	      0.93432276	    -16.31693935	     19.47128546
      0.48800000	    -10.14248528	     16.24997818	     -5.06033941	     -1.46566275	      0.98562546	      0.18899526	    -21.67863612	    -17.37714632	    -23.42985491	     16.33768819	      0.28514645	    -19.73922445	      0.00000000	     46.35103451	     65.66673284	      8.16687718	     -7.94829894	    103.99600424	      1.81507268	     24.77058761	      0.00000000	     48.46948047	      2.12062491	    -17.01885454	     19.79254313
      0.49200000	    -10.46321074	     15.94490755	     -4.66763718	     -1.43862672	      0.98672969	      0.18918081	    -22.30347842	    -16.94913383	    -23.40422663	     16.83404597	      0.29380953	    -20.14715877	      0.00000000	     46.47636160	     66.30058432	      7.88655462	     -8.25454651	    100.83990196	      1.75998831	     25.03518730	      0.00000000	     48.53520789	      2.43167862	    -16.85350983	     19.97609294
      0.49600000	    -11.34084518	     16.44844839	     -4.13610778	     -1.41189737	      0.98732055	      0.18902388	    -22.00666787	    -17.40966924	    -22.95019658	     18.21271348	      0.31787182	    -21.45632264	      0.00000000	     46.96749126	     67.42401563	      8.12173409	     -9.27417464	     97.26474097	      1.69758998	     24.89137689	      0.00000000	     48.06933801	      3.42925711	    -17.56821672	     20.16020859
      0.50000000	    -12.03780789	     16.39714175	     -3.65110732	     -1.38512006	      0.98820938	      0.18900474	    -21.79505411	    -17.30470255	    -22.16487839	     19.91309581	      0.34754909	    -21.17988794	      0.00000000	     48.85666138	     67.92876763	      8.06880646	     -9.79815643	     93.22574053	      1.62709612	     22.77386011	      0.00000000	     38.13945692	      4.14132874	    -17.68751399	     20.41298674
      0.50400000	    -12.35306151	     16.21101181	     -3.24301290	     -1.35877344	      0.98960181	      0.18889831	    -21.87287751	    -17.01884529	    -21.02911842	     21.72940709	      0.37924970	    -21.33743421	      0.00000000	     48.69465787	     67.98495226	      8.03750914	    -10.26025000	     89.47918097	      1.56170632	     22.42951162	      0.00000000	     38.03979877	      4.31925782	    -17.67308567	     20.47213695
      0.50800000	    -12.61114727	     15.82871000	     -2.74993931	     -1.33259053	      0.99105824	      0.18876615	    -21.82040987	    -16.43813393	    -19.61458966	     23.89345920	      0.41701953	    -21.33890794	      0.00000000	     48.41849347	     67.85102868	      8.07695217	    -10.57043347	     85.52530403	      1.49269815	     21.94030785	      0.00000000	     37.64328779	      4.34244379	    -17.46886306	     20.38302424
      0.51200000	    -12.98282397	     15.29892154	     -2.47893736	     -1.30589888	      0.99239100	      0.18858033	    -21.47641048	    -15.74444673	    -17.74742775	     26.19867123	      0.45725307	    -21.40897436	      0.00000000	     48.59189813	     67.49200610	      7.83799198	    -10.80292200	     81.30371251	      1.41901748	     20.23600471	      0.00000000	     31.56319976	      4.62846088	    -16.97852957	     20.52620126
      0.51600000	    -13.05793492	     14.81893119	     -2.13958168	     -1.27956495	      0.99400357	      0.18838667	    -21.31371464	    -15.05071971	    -16.07388760	     28.80090938	      0.50267070	    -21.81633507	      0.00000000	     48.52190340	     66.81215285	      7.80586130	    -11.12136376	     77.27998341	      1.34879016	     19.58084053	      0.00000000	     31.91703480	      4.48158111	    -16.62886166	     20.53827761
      0.52000000	    -13.12935871	     14.39523726	     -1.77257186	     -1.25318617	      0.99555560	      0.18818922	    -21.02592150	    -14.36820106	    -14.46274711	     31.66545478	      0.55266645	    -21.73171661	      0.00000000	     49.47607350	     65.93422556	      7.88987065	    -11.38845291	     73.03842095	      1.27476093	     18.14148291	      0.00000000	     29.25639101	      4.33705423	    -16.36838210	     20.54279522
      0.52400000	    -12.95768906	     13.82611325	     -1.48923677	     -1.22673936	      0.99716561	      0.18821907	    -20.86277864	    -13.54737051	    -12.96359334	     34.68134057	      0.60530358	    -22.46004025	      0.00000000	     49.37414692	     64.74247162	      7.84482943	    -11.66453144	     69.02832570	      1.20477156	     17.24687301	      0.00000000	     29.70331748	      3.89118587	    -15.91154430	     20.45509618
      0.52800000	    -12.72725408	     13.47000655	     -1.11183559	     -1.20040554	      0.99870873	      0.18827862	    -20.71380078	    -12.87367964	    -11.75921482	     37.89176889	      0.66133613	    -22.82016999	      0.00000000	     49.19204229	     63.39858039	      8.05216625	    -12.02483231	     64.97126930	      1.13396257	     15.89679637	      0.00000000	     29.96755418	      3.39062782	    -15.78835896	     20.44136180
      0.53200000	    -12.54533641	     12.99192145	     -0.73578782	     -1.17400307	      0.99998681	      0.18819223	    -20.36610440	    -12.15939669	    -10.83619364	     41.35896162	      0.72185006	    -23.16138298	      0.00000000	     49.19180038	     61.96398099	      8.17899332	    -12.33632746	     60.68936646	      1.05922927	     13.56216568	      0.00000000	     24.99428380	      2.92656644	    -15.45805076	     20.30672977
      0.53600000	    -12.06948858	     12.62373758	     -0.39512837	     -1.14746427	      1.00139055	      0.18843726	    -20.31646722	    -11.53141335	    -10.16073951	     44.85378960	      0.78284631	    -23.35566762	      0.00000000	     48.97210695	     60.25825958	      8.38470811	    -12.72457705	     56.92546834	      0.99353685	     12.35221578	      0.00000000	     25.42155516	      2.15995582	    -15.32288285	     20.19207700
      0.54000000	    -11.61238438	     12.23474750	     -0.05122941	     -1.12076133	      1.00250746	      0.18843474	    -20.21588821	    -10.89160985	     -9.52429118	     48.35413715	      0.84393890	    -23.59642361	      0.00000000	     48.77485886	     58.57383588	      8.63729493	    -13.03691492	     53.35772107	      0.93126791	     11.54489062	      0.00000000	     25.68967195	      1.45328050	    -15.07160328	     20.05641315
      0.54400000	    -11.03349772	     12.35846648	      0.28766400	     -1.09393638	      1.00367727	      0.18849711	    -20.23770849	    -10.92011300	     -9.54902459	     52.05492330	      0.90852980	    -23.04247688	      0.00000000	     49.10432104	     56.56689458	      9.15007216	    -13.93521260	     49.46115404	      0.86325999	      9.09791980	      0.00000000	     20.87221622	      0.61504916	    -15.41930187	     19.85325327
      0.54800000	    -10.68602635	     12.03527569	      1.05132865	     -1.06737828	      1.00417522	      0.18755960	    -20.04323709	    -10.36613793	     -9.72727945	     55.70245588	      0.97219126	    -22.76441999	      0.00000000	     48.83246427	     54.95126140	      9.81260709	    -13.90894770	     46.37141928	      0.80933395	      8.16849087	      0.00000000	     21.42753031	     -0.06215287	    -15.18111274	     19.16672348
      0.55200000	    -10.06093077	     11.91044068	      1.39769312	     -1.04043417	      1.00492291	      0.18786529	    -20.04971047	    -10.05286251	     -9.62081708	     59.34015588	      1.03568110	    -22.44003177	      0.00000000	     48.64501469	     53.02472055	     10.20338821	    -14.38412365	     43.52712488	      0.75969164	      7.21826655	      0.00000000	     22.01383839	     -0.87231406	    -15.25611236	     18.89024326
